<?xml version="1.0"?>
<svg xmlns="http://www.w3.org/2000/svg" xmlns:xlink="http://www.w3.org/1999/xlink" xmlns:svgjs="http://svgjs.com/svgjs" version="1.1" width="512" height="512" x="0" y="0" viewBox="0 0 372.938 372.938" style="enable-background:new 0 0 512 512" xml:space="preserve" class=""><g>
<g xmlns="http://www.w3.org/2000/svg">
	<g>
		<path d="M350.314,174.656h-3.127c-7.975-21.238-30.859-81.434-41.875-103.026c-13.531-26.517-37.623-30.682-51.254-30.849h-8.932    V2.531h-114.75v38.25h-11.953c-27.693,0-44.542,18.532-50.127,29.491L24.204,174.656h-5.079C8.558,174.656,0,183.214,0,193.781    v86.062c0,10.566,8.558,19.125,19.125,19.125h334.688c10.568,0,19.125-8.559,19.125-19.125v-86.062    C372.938,183.214,366.688,174.656,350.314,174.656z M93.972,83.105c1.357-2.266,8.951-13.636,24.451-13.636h136.266l1.242-0.057    c1.559-0.057,15.74-0.602,23.83,15.252c8.875,17.404,26.984,64.26,36.75,89.993H55.339L93.972,83.105z M46.639,263.391    c-12.211,0-22.108-9.897-22.108-22.108s9.897-22.108,22.108-22.108s22.109,9.896,22.109,22.108    C68.748,253.493,58.86,263.391,46.639,263.391z M324.264,262.391c-12.211,0-22.109-9.897-22.109-22.108    s9.898-22.108,22.109-22.108s22.107,9.896,22.107,22.108C346.373,252.493,336.484,262.391,324.264,262.391z" fill="#8d938e" data-original="#000000" style="" class=""/>
		<path d="M76.499,370.406c10.567,0,19.125-8.558,19.125-19.125v-42.75H38.249v42.75c0,10.567,8.558,19.125,19.125,19.125H76.499z" fill="#8d938e" data-original="#000000" style="" class=""/>
		<path d="M277.312,351.281c0,10.567,8.557,19.125,19.125,19.125h19.125c10.566,0,19.125-8.558,19.125-19.125v-42.75h-57.375    V351.281z" fill="#8d938e" data-original="#000000" style="" class=""/>
	</g>
</g>
<g xmlns="http://www.w3.org/2000/svg">
</g>
<g xmlns="http://www.w3.org/2000/svg">
</g>
<g xmlns="http://www.w3.org/2000/svg">
</g>
<g xmlns="http://www.w3.org/2000/svg">
</g>
<g xmlns="http://www.w3.org/2000/svg">
</g>
<g xmlns="http://www.w3.org/2000/svg">
</g>
<g xmlns="http://www.w3.org/2000/svg">
</g>
<g xmlns="http://www.w3.org/2000/svg">
</g>
<g xmlns="http://www.w3.org/2000/svg">
</g>
<g xmlns="http://www.w3.org/2000/svg">
</g>
<g xmlns="http://www.w3.org/2000/svg">
</g>
<g xmlns="http://www.w3.org/2000/svg">
</g>
<g xmlns="http://www.w3.org/2000/svg">
</g>
<g xmlns="http://www.w3.org/2000/svg">
</g>
<g xmlns="http://www.w3.org/2000/svg">
</g>
</g></svg>
